<?xml version="1.0" standalone="no"?>
<!DOCTYPE svg PUBLIC "-//W3C//DTD SVG 20010904//EN"
 "http://www.w3.org/TR/2001/REC-SVG-20010904/DTD/svg10.dtd">
<svg version="1.0" xmlns="http://www.w3.org/2000/svg"
 width="608.000000pt" height="608.000000pt" viewBox="0 0 608.000000 608.000000"
 preserveAspectRatio="xMidYMid meet">
<metadata>
Created by potrace 1.14, written by Peter Selinger 2001-2017
</metadata>
<g transform="translate(0.000000,608.000000) scale(0.100000,-0.100000)"
fill="#000000" stroke="none">
<path d="M2202 5958 c-17 -17 -17 -539 0 -556 17 -17 1659 -17 1676 0 17 17
17 539 0 556 -17 17 -1659 17 -1676 0z"/>
<path d="M2885 5119 c-689 -39 -1340 -369 -1786 -904 -309 -372 -499 -811
-564 -1300 -21 -159 -21 -471 0 -630 47 -350 154 -666 326 -961 427 -731 1191
-1197 2037 -1243 863 -47 1659 328 2179 1027 247 333 410 742 468 1177 21 159
21 471 0 630 -58 432 -213 822 -467 1174 l-61 83 198 198 198 198 -51 60 c-29
33 -118 124 -198 202 l-147 142 -196 -196 c-108 -108 -201 -196 -206 -196 -6
0 -44 25 -85 56 -117 87 -242 161 -405 240 -384 186 -803 268 -1240 243z m541
-603 c180 -38 333 -91 489 -170 544 -275 913 -757 1042 -1365 26 -118 27 -142
27 -381 0 -239 -1 -263 -27 -381 -38 -179 -87 -323 -161 -474 -273 -554 -759
-930 -1375 -1063 -119 -25 -141 -27 -381 -26 -239 0 -263 1 -381 27 -479 102
-886 356 -1171 730 -181 237 -300 499 -365 806 -26 118 -28 141 -28 381 0 239
2 263 27 381 76 351 228 657 455 915 307 347 744 579 1213 644 36 5 166 7 290
5 196 -2 241 -6 346 -29z"/>
<path d="M2762 3998 c-17 -17 -17 -1659 0 -1676 17 -17 539 -17 556 0 17 17
17 1659 0 1676 -17 17 -539 17 -556 0z"/>
</g>
</svg>
